<svg id="Layer_1" data-name="Layer 1" xmlns="http://www.w3.org/2000/svg" viewBox="0 0 1194.08 969.8"><defs><style>.cls-1{fill:#68b6e4;}.cls-2{fill:#80bfe7;}.cls-3{fill:#bfdbf2;}.cls-4{fill:#a1cded;}</style></defs><title>twitter</title><g id="nYEv21.tif"><path d="M807,0h5a13.47,13.47,0,0,0,8,0h15c2.26,1.06,4.66.25,7,.5h4.7c28.53-.21,55.16,7.57,81,19C955.55,31.78,980,49.12,1001.69,70.4c3.55,3.48,6.85,4.4,11.54,3.38a498.22,498.22,0,0,0,95.27-31,452.17,452.17,0,0,0,44.1-22.32c2.5-1.45,5.42-3.88,8.21-1.48,2.6,2.23.7,5.37-.24,7.92-10.31,27.9-24.7,53.43-44.11,76.06a247.09,247.09,0,0,1-53.77,47.38c43-5.82,84.15-17.55,124-34.15,2.26-.94,5.17-2.69,6.88-.29,1.42,2-.25,4.78-1.68,6.83a516.91,516.91,0,0,1-34.36,44.09,461.23,461.23,0,0,1-39.69,40.75c-12.16,10.88-24.32,21.81-37.79,31-5.49,3.75-6.51,8.2-5.91,14a219.15,219.15,0,0,1,.06,41.85c-.68,7.78-.49,15.61-1,23.42a682.27,682.27,0,0,1-8.67,72.28A714.52,714.52,0,0,1,1023.84,534a727,727,0,0,1-85.35,156.62,699,699,0,0,1-53.14,65.47,680.64,680.64,0,0,1-110,96.77,644.72,644.72,0,0,1-83.6,49.78,665.28,665.28,0,0,1-128.38,48.09,753.47,753.47,0,0,1-84.13,16.72c-9.35,1.34-18.89,1.21-28.34,1.82-1.29.08-2.67-.43-3.85.49h-136c-1.66-1-3.49-.27-5.22-.5-20.53-.17-40.75-2.94-60.87-6.75a696.87,696.87,0,0,1-137.1-40.75A705.86,705.86,0,0,1,4.92,868.9c-2.16-1.35-5.72-2.6-4.76-5.63,1.13-3.55,5-2.55,7.86-2.28,9.27.87,18.54,1.58,27.86,1.84,8.14.23,16.25,1.17,24.42.92,39.5-1.21,78.57-5.43,117-15.29A499.76,499.76,0,0,0,281.68,809a489.26,489.26,0,0,0,71-44.53,4.48,4.48,0,0,0,1.8-2.16c-5.28-.85-10.56-.66-15.76-1.23a247.44,247.44,0,0,1-206-163.29c-.17-.47-.34-.94-.48-1.42-2-6.59-.52-8.64,6.23-7.41,17.49,3.19,35.13,3,52.76,2.78,14.37-.16,28.45-2.65,42.41-5.87-38.88-9.66-73.57-27.33-103.86-53.7-43-37.43-69.88-84.15-81.17-139.88a231.39,231.39,0,0,1-4.47-44.1c0-7,2.3-8.39,8.6-5.18a251.22,251.22,0,0,0,80.5,25.55c5.25.72,10.52,1.77,16.2,1.18a253.43,253.43,0,0,1-27.55-22.94A222.8,222.8,0,0,1,93.65,314.5c-21.43-29.72-36.1-62.44-43-98.53a243.66,243.66,0,0,1-4.48-59.08c1.9-34.8,10.18-68,25.9-99.26,1.64-3.27,3.37-6.52,5.3-9.63,2.59-4.17,4.92-4.48,8.3-1,5.76,6,10.93,12.55,16.44,18.78,15.35,17.35,31.64,33.75,48.59,49.53q22.88,21.28,47.62,40.31a694.22,694.22,0,0,0,124.36,76.6,692.16,692.16,0,0,0,176.71,56.89A695.23,695.23,0,0,0,568.62,298c3.64.28,7.24.93,10.93.91s4.73-1.36,4-4.92a243.62,243.62,0,0,1-3.88-29.14,266.82,266.82,0,0,1,0-38.87,236.9,236.9,0,0,1,8.4-48.08A248.44,248.44,0,0,1,715.68,24c21.82-11,44.73-18.93,69-22.28C792.09.7,799.59,1,807,0Z"/><path class="cls-1" d="M820,0a7.67,7.67,0,0,1-8,0Z"/><path class="cls-2" d="M842.05.9c-2.4,0-4.89.71-7.08-.9h7c.4.16.55.35.44.56S842.17.9,842.05.9Z"/><path class="cls-3" d="M842.05.9A5.47,5.47,0,0,1,842,0h5a8.31,8.31,0,0,0,.07.86Z"/><path class="cls-4" d="M306.06,969.8c-.06-.27-.1-.54-.14-.81,1.8-.26,3.58-.44,5.14.81Z"/></g></svg>